<svg width="143" height="32" viewBox="0 0 143 32" fill="none" xmlns="http://www.w3.org/2000/svg">
<path d="M42.5279 21.6766H43.1104L46.3145 17.3268H49.1545L45.2222 22.619L49.5187 28.3463H46.6786L43.3289 23.9965H42.5279V28.3463H39.979V17.3268H42.5279V21.6766Z" fill="black"/>
<path d="M42.5279 21.6766H43.1104L46.3145 17.3268H49.1545L45.2222 22.619L49.5187 28.3463H46.6786L43.3289 23.9965H42.5279V28.3463H39.979V17.3268H42.5279V21.6766Z" fill="black"/>
<path d="M53.8147 28.4915C53.0865 28.4915 52.504 28.3465 51.9213 28.129C51.4116 27.9116 50.9018 27.6216 50.5378 27.1865C50.1737 26.824 49.8824 26.3166 49.6638 25.8091C49.4454 25.3016 49.3726 24.7941 49.3726 24.2142C49.3726 23.6342 49.4454 23.1267 49.6638 22.6192C49.8824 22.1118 50.1737 21.6768 50.5378 21.2418C50.9018 20.8793 51.3387 20.5168 51.9213 20.2993C52.4311 20.0819 53.0865 19.9369 53.8147 19.9369C54.543 19.9369 55.1255 20.0819 55.6352 20.2993C56.1449 20.5168 56.6548 20.8068 57.0189 21.2418C57.383 21.6044 57.6742 22.1118 57.8927 22.6192C58.1111 23.1267 58.1839 23.6342 58.1839 24.2142C58.1839 24.7941 58.1111 25.3016 57.8927 25.8091C57.6742 26.3166 57.383 26.7516 57.0189 27.1865C56.6548 27.5491 56.2177 27.9116 55.6352 28.129C55.1255 28.3465 54.4701 28.4915 53.8147 28.4915ZM51.9941 24.2866C51.9941 24.9392 52.1399 25.4467 52.504 25.8091C52.868 26.1716 53.3049 26.3891 53.8147 26.3891C54.1059 26.3891 54.3244 26.3166 54.543 26.2441C54.7614 26.1716 54.9799 26.0266 55.1255 25.8091C55.2711 25.5917 55.4168 25.3741 55.4896 25.1566C55.5624 24.8667 55.6352 24.5767 55.6352 24.2866C55.6352 23.6342 55.4896 23.1267 55.1255 22.7643C54.7614 22.4018 54.3244 22.1843 53.8147 22.1843C53.5234 22.1843 53.3049 22.2568 53.0865 22.3292C52.868 22.4018 52.6496 22.5468 52.504 22.7643C52.3583 22.9817 52.2127 23.1992 52.1399 23.4168C51.9941 23.6342 51.9941 23.9242 51.9941 24.2866Z" fill="black"/>
<path d="M53.8147 28.4915C53.0865 28.4915 52.504 28.3465 51.9213 28.129C51.4116 27.9116 50.9018 27.6216 50.5378 27.1865C50.1737 26.824 49.8824 26.3166 49.6638 25.8091C49.4454 25.3016 49.3726 24.7941 49.3726 24.2142C49.3726 23.6342 49.4454 23.1267 49.6638 22.6192C49.8824 22.1118 50.1737 21.6768 50.5378 21.2418C50.9018 20.8793 51.3387 20.5168 51.9213 20.2993C52.4311 20.0819 53.0865 19.9369 53.8147 19.9369C54.543 19.9369 55.1255 20.0819 55.6352 20.2993C56.1449 20.5168 56.6548 20.8068 57.0189 21.2418C57.383 21.6044 57.6742 22.1118 57.8927 22.6192C58.1111 23.1267 58.1839 23.6342 58.1839 24.2142C58.1839 24.7941 58.1111 25.3016 57.8927 25.8091C57.6742 26.3166 57.383 26.7516 57.0189 27.1865C56.6548 27.5491 56.2177 27.9116 55.6352 28.129C55.1255 28.3465 54.4701 28.4915 53.8147 28.4915ZM51.9941 24.2866C51.9941 24.9392 52.1399 25.4467 52.504 25.8091C52.868 26.1716 53.3049 26.3891 53.8147 26.3891C54.1059 26.3891 54.3244 26.3166 54.543 26.2441C54.7614 26.1716 54.9799 26.0266 55.1255 25.8091C55.2711 25.5917 55.4168 25.3741 55.4896 25.1566C55.5624 24.8667 55.6352 24.5767 55.6352 24.2866C55.6352 23.6342 55.4896 23.1267 55.1255 22.7643C54.7614 22.4018 54.3244 22.1843 53.8147 22.1843C53.5234 22.1843 53.3049 22.2568 53.0865 22.3292C52.868 22.4018 52.6496 22.5468 52.504 22.7643C52.3583 22.9817 52.2127 23.1992 52.1399 23.4168C51.9941 23.6342 51.9941 23.9242 51.9941 24.2866Z" fill="black"/>
<path d="M95.6138 22.5463C95.3953 22.0388 95.1768 21.6039 94.8126 21.2414C94.4485 20.8789 94.0845 20.5889 93.6476 20.3714C93.2107 20.154 92.7009 20.0815 92.1183 20.0815C91.4629 20.0815 90.9532 20.2264 90.5163 20.444C90.2249 20.5889 89.9336 20.8065 89.7152 21.0964V20.2264H87.2393V31.6811H89.7152V27.0411C89.9336 27.4762 90.2977 27.8387 90.8076 28.1287C91.2445 28.4186 91.827 28.4912 92.4095 28.4912C92.9194 28.4912 93.3563 28.4186 93.7932 28.2011C94.2301 27.9837 94.5942 27.6936 94.8854 27.3312C95.1769 26.9687 95.4681 26.5336 95.6138 26.0262C95.7594 25.5187 95.905 24.9388 95.905 24.3587C95.905 23.6338 95.8322 23.0538 95.6138 22.5463ZM93.4291 25.0837C93.3563 25.3737 93.2107 25.5912 93.065 25.7362C92.9194 25.9537 92.7009 26.0987 92.4823 26.1713C92.2639 26.2437 92.0454 26.3162 91.7542 26.3162C91.2445 26.3162 90.8076 26.0987 90.4433 25.7362C90.0793 25.3737 89.9336 24.8662 89.9336 24.2138C89.9336 23.9238 90.0064 23.6338 90.0792 23.3439C90.1521 23.0538 90.2977 22.8364 90.4433 22.6913C90.5891 22.4739 90.8076 22.3289 91.026 22.2564C91.2445 22.1838 91.4629 22.1114 91.7542 22.1114C92.2639 22.1114 92.7009 22.3289 93.065 22.6913C93.4291 23.0538 93.5747 23.5613 93.5747 24.2138C93.5747 24.5763 93.5019 24.8662 93.4291 25.0837Z" fill="black"/>
<path d="M95.6138 22.5463C95.3953 22.0388 95.1768 21.6039 94.8126 21.2414C94.4485 20.8789 94.0845 20.5889 93.6476 20.3714C93.2107 20.154 92.7009 20.0815 92.1183 20.0815C91.4629 20.0815 90.9532 20.2264 90.5163 20.444C90.2249 20.5889 89.9336 20.8065 89.7152 21.0964V20.2264H87.2393V31.6811H89.7152V27.0411C89.9336 27.4762 90.2977 27.8387 90.8076 28.1287C91.2445 28.4186 91.827 28.4912 92.4095 28.4912C92.9194 28.4912 93.3563 28.4186 93.7932 28.2011C94.2301 27.9837 94.5942 27.6936 94.8854 27.3312C95.1769 26.9687 95.4681 26.5336 95.6138 26.0262C95.7594 25.5187 95.905 24.9388 95.905 24.3587C95.905 23.6338 95.8322 23.0538 95.6138 22.5463ZM93.4291 25.0837C93.3563 25.3737 93.2107 25.5912 93.065 25.7362C92.9194 25.9537 92.7009 26.0987 92.4823 26.1713C92.2639 26.2437 92.0454 26.3162 91.7542 26.3162C91.2445 26.3162 90.8076 26.0987 90.4433 25.7362C90.0793 25.3737 89.9336 24.8662 89.9336 24.2138C89.9336 23.9238 90.0064 23.6338 90.0792 23.3439C90.1521 23.0538 90.2977 22.8364 90.4433 22.6913C90.5891 22.4739 90.8076 22.3289 91.026 22.2564C91.2445 22.1838 91.4629 22.1114 91.7542 22.1114C92.2639 22.1114 92.7009 22.3289 93.065 22.6913C93.4291 23.0538 93.5747 23.5613 93.5747 24.2138C93.5747 24.5763 93.5019 24.8662 93.4291 25.0837Z" fill="black"/>
<path d="M141.929 22.5463C141.71 22.0388 141.492 21.6039 141.128 21.2414C140.763 20.8789 140.399 20.5889 139.962 20.3714C139.526 20.154 139.016 20.0815 138.433 20.0815C137.778 20.0815 137.268 20.2264 136.831 20.444C136.54 20.5889 136.249 20.8065 136.03 21.0964V20.2264H133.554V31.6811H136.03V27.0411C136.249 27.4762 136.613 27.8387 137.123 28.1287C137.559 28.4186 138.142 28.4912 138.725 28.4912C139.234 28.4912 139.671 28.4186 140.108 28.2011C140.545 27.9837 140.909 27.6936 141.201 27.3312C141.492 26.9687 141.783 26.5336 141.929 26.0262C142.074 25.5187 142.22 24.9388 142.22 24.3587C142.22 23.6338 142.147 23.0538 141.929 22.5463ZM139.744 25.0837C139.671 25.3737 139.526 25.5912 139.38 25.7362C139.234 25.9537 139.016 26.0987 138.797 26.1713C138.579 26.2437 138.36 26.3162 138.069 26.3162C137.559 26.3162 137.123 26.0987 136.758 25.7362C136.394 25.3737 136.249 24.8662 136.249 24.2138C136.249 23.9238 136.322 23.6338 136.394 23.3439C136.467 23.0538 136.613 22.8364 136.758 22.6913C136.904 22.4739 137.123 22.3289 137.341 22.2564C137.559 22.1838 137.778 22.1114 138.069 22.1114C138.579 22.1114 139.016 22.3289 139.38 22.6913C139.744 23.0538 139.89 23.5613 139.89 24.2138C139.89 24.5763 139.817 24.8662 139.744 25.0837Z" fill="black"/>
<path d="M141.929 22.5463C141.71 22.0388 141.492 21.6039 141.128 21.2414C140.763 20.8789 140.399 20.5889 139.962 20.3714C139.526 20.154 139.016 20.0815 138.433 20.0815C137.778 20.0815 137.268 20.2264 136.831 20.444C136.54 20.5889 136.249 20.8065 136.03 21.0964V20.2264H133.554V31.6811H136.03V27.0411C136.249 27.4762 136.613 27.8387 137.123 28.1287C137.559 28.4186 138.142 28.4912 138.725 28.4912C139.234 28.4912 139.671 28.4186 140.108 28.2011C140.545 27.9837 140.909 27.6936 141.201 27.3312C141.492 26.9687 141.783 26.5336 141.929 26.0262C142.074 25.5187 142.22 24.9388 142.22 24.3587C142.22 23.6338 142.147 23.0538 141.929 22.5463ZM139.744 25.0837C139.671 25.3737 139.526 25.5912 139.38 25.7362C139.234 25.9537 139.016 26.0987 138.797 26.1713C138.579 26.2437 138.36 26.3162 138.069 26.3162C137.559 26.3162 137.123 26.0987 136.758 25.7362C136.394 25.3737 136.249 24.8662 136.249 24.2138C136.249 23.9238 136.322 23.6338 136.394 23.3439C136.467 23.0538 136.613 22.8364 136.758 22.6913C136.904 22.4739 137.123 22.3289 137.341 22.2564C137.559 22.1838 137.778 22.1114 138.069 22.1114C138.579 22.1114 139.016 22.3289 139.38 22.6913C139.744 23.0538 139.89 23.5613 139.89 24.2138C139.89 24.5763 139.817 24.8662 139.744 25.0837Z" fill="black"/>
<path d="M62.1893 23.0541H64.9565V20.1541H67.4324V28.3463H64.9565V25.229H62.1893V28.3463H59.7134V20.1541H62.1893V23.0541Z" fill="black"/>
<path d="M62.1893 23.0541H64.9565V20.1541H67.4324V28.3463H64.9565V25.229H62.1893V28.3463H59.7134V20.1541H62.1893V23.0541Z" fill="black"/>
<path d="M83.3078 28.3463H80.8319V22.3291H78.356V20.1541H85.7109V22.3291H83.3078V28.3463Z" fill="black"/>
<path d="M83.3078 28.3463H80.8319V22.3291H78.356V20.1541H85.7109V22.3291H83.3078V28.3463Z" fill="black"/>
<path d="M97.6531 29.5064C97.7987 29.5788 98.0171 29.6514 98.1628 29.6514C98.3084 29.6514 98.454 29.7238 98.5997 29.7238C98.8181 29.7238 99.0366 29.6514 99.1822 29.4339C99.3278 29.2163 99.6191 28.8538 99.5463 28.3463C99.4735 27.839 96.415 20.2267 96.415 20.2267H99.0366L100.857 25.6641L102.459 20.2267H104.862L101.877 29.3613C101.585 30.2313 101.221 30.8838 100.712 31.3188C100.202 31.7538 99.6191 31.9713 98.8909 31.9713C98.6725 31.9713 98.454 31.9713 98.3084 31.8987C98.09 31.8263 97.9443 31.8263 97.7257 31.7538V29.5064H97.6531Z" fill="black"/>
<path d="M97.6531 29.5064C97.7987 29.5788 98.0171 29.6514 98.1628 29.6514C98.3084 29.6514 98.454 29.7238 98.5997 29.7238C98.8181 29.7238 99.0366 29.6514 99.1822 29.4339C99.3278 29.2163 99.6191 28.8538 99.5463 28.3463C99.4735 27.839 96.415 20.2267 96.415 20.2267H99.0366L100.857 25.6641L102.459 20.2267H104.862L101.877 29.3613C101.585 30.2313 101.221 30.8838 100.712 31.3188C100.202 31.7538 99.6191 31.9713 98.8909 31.9713C98.6725 31.9713 98.454 31.9713 98.3084 31.8987C98.09 31.8263 97.9443 31.8263 97.7257 31.7538V29.5064H97.6531Z" fill="black"/>
<path d="M111.27 20.1541H113.965L110.761 24.1415L114.256 28.3463H111.343L109.013 25.4465H108.649V28.3463H106.173V20.1541H108.649V23.1991H108.94L111.27 20.1541Z" fill="black"/>
<path d="M111.27 20.1541H113.965L110.761 24.1415L114.256 28.3463H111.343L109.013 25.4465H108.649V28.3463H106.173V20.1541H108.649V23.1991H108.94L111.27 20.1541Z" fill="black"/>
<path d="M120.009 28.3463H117.534V22.3291H115.058V20.1541H122.413V22.3291H120.009V28.3463Z" fill="black"/>
<path d="M120.009 28.3463H117.534V22.3291H115.058V20.1541H122.413V22.3291H120.009V28.3463Z" fill="black"/>
<path d="M127.655 28.4915C126.927 28.4915 126.344 28.3465 125.762 28.129C125.252 27.9116 124.742 27.6216 124.378 27.1865C124.014 26.824 123.723 26.3166 123.504 25.8091C123.286 25.3016 123.213 24.7941 123.213 24.2142C123.213 23.6342 123.286 23.1267 123.504 22.6192C123.723 22.1118 124.014 21.6768 124.378 21.2418C124.742 20.8793 125.179 20.5168 125.762 20.2993C126.271 20.0819 126.927 19.9369 127.655 19.9369C128.383 19.9369 128.966 20.0819 129.475 20.2993C129.985 20.5168 130.495 20.8068 130.859 21.2418C131.223 21.6044 131.514 22.1118 131.733 22.6192C131.951 23.1267 132.024 23.6342 132.024 24.2142C132.024 24.7941 131.951 25.3016 131.733 25.8091C131.514 26.3166 131.223 26.7516 130.859 27.1865C130.495 27.5491 130.058 27.9116 129.475 28.129C128.966 28.3465 128.31 28.4915 127.655 28.4915ZM125.834 24.2866C125.834 24.9392 125.98 25.4467 126.344 25.8091C126.708 26.1716 127.145 26.3891 127.655 26.3891C127.946 26.3891 128.165 26.3166 128.383 26.2441C128.602 26.1716 128.82 26.0266 128.966 25.8091C129.111 25.5917 129.257 25.3741 129.33 25.1566C129.403 24.8667 129.475 24.5767 129.475 24.2866C129.475 23.6342 129.33 23.1267 128.966 22.7643C128.602 22.4018 128.165 22.1843 127.655 22.1843C127.364 22.1843 127.145 22.2568 126.927 22.3292C126.708 22.4018 126.49 22.5468 126.344 22.7643C126.199 22.9817 126.053 23.1992 125.98 23.4168C125.834 23.6342 125.834 23.9242 125.834 24.2866Z" fill="black"/>
<path d="M127.655 28.4915C126.927 28.4915 126.344 28.3465 125.762 28.129C125.252 27.9116 124.742 27.6216 124.378 27.1865C124.014 26.824 123.723 26.3166 123.504 25.8091C123.286 25.3016 123.213 24.7941 123.213 24.2142C123.213 23.6342 123.286 23.1267 123.504 22.6192C123.723 22.1118 124.014 21.6768 124.378 21.2418C124.742 20.8793 125.179 20.5168 125.762 20.2993C126.271 20.0819 126.927 19.9369 127.655 19.9369C128.383 19.9369 128.966 20.0819 129.475 20.2993C129.985 20.5168 130.495 20.8068 130.859 21.2418C131.223 21.6044 131.514 22.1118 131.733 22.6192C131.951 23.1267 132.024 23.6342 132.024 24.2142C132.024 24.7941 131.951 25.3016 131.733 25.8091C131.514 26.3166 131.223 26.7516 130.859 27.1865C130.495 27.5491 130.058 27.9116 129.475 28.129C128.966 28.3465 128.31 28.4915 127.655 28.4915ZM125.834 24.2866C125.834 24.9392 125.98 25.4467 126.344 25.8091C126.708 26.1716 127.145 26.3891 127.655 26.3891C127.946 26.3891 128.165 26.3166 128.383 26.2441C128.602 26.1716 128.82 26.0266 128.966 25.8091C129.111 25.5917 129.257 25.3741 129.33 25.1566C129.403 24.8667 129.475 24.5767 129.475 24.2866C129.475 23.6342 129.33 23.1267 128.966 22.7643C128.602 22.4018 128.165 22.1843 127.655 22.1843C127.364 22.1843 127.145 22.2568 126.927 22.3292C126.708 22.4018 126.49 22.5468 126.344 22.7643C126.199 22.9817 126.053 23.1992 125.98 23.4168C125.834 23.6342 125.834 23.9242 125.834 24.2866Z" fill="black"/>
<path d="M39.979 2.46487H48.2807V4.71228H42.6007V6.81469H45.295C46.4601 6.81469 47.4069 7.10469 48.0622 7.68466C48.7176 8.26465 49.0817 9.06211 49.0817 10.0771C49.0817 11.1645 48.7904 11.962 48.135 12.542C47.4797 13.122 46.6057 13.4119 45.4407 13.4119H40.0518V2.46487H39.979ZM45.0038 11.3095C45.4407 11.3095 45.8048 11.1645 46.0232 10.947C46.2417 10.7295 46.3873 10.4395 46.3873 10.0046C46.3873 9.64208 46.2417 9.35209 46.0232 9.1346C45.8048 8.91711 45.4407 8.77212 45.0038 8.77212H42.5279V11.237H45.0038V11.3095Z" fill="black"/>
<path d="M39.979 2.46487H48.2807V4.71228H42.6007V6.81469H45.295C46.4601 6.81469 47.4069 7.10469 48.0622 7.68466C48.7176 8.26465 49.0817 9.06211 49.0817 10.0771C49.0817 11.1645 48.7904 11.962 48.135 12.542C47.4797 13.122 46.6057 13.4119 45.4407 13.4119H40.0518V2.46487H39.979ZM45.0038 11.3095C45.4407 11.3095 45.8048 11.1645 46.0232 10.947C46.2417 10.7295 46.3873 10.4395 46.3873 10.0046C46.3873 9.64208 46.2417 9.35209 46.0232 9.1346C45.8048 8.91711 45.4407 8.77212 45.0038 8.77212H42.5279V11.237H45.0038V11.3095Z" fill="black"/>
<path d="M50.6162 13.488V5.31228H53.0931V13.488H50.6162ZM50.6162 4.29255V2.03448H53.0931V4.29255H50.6162Z" fill="black"/>
<path d="M54.8201 6.0897C55.257 5.72722 55.7669 5.43724 56.3494 5.29224C56.8591 5.14725 57.4417 5.00226 57.9515 5.00226C58.3156 5.00226 58.6797 5.07475 59.0438 5.14725C59.4079 5.21975 59.6991 5.36474 59.9904 5.58223C60.2818 5.72722 60.5003 6.01721 60.6459 6.30719C60.7915 6.59719 60.8643 6.88718 60.8643 7.32216C60.8643 7.75715 60.7187 8.11963 60.5003 8.48211C60.2818 8.84459 59.9176 9.06208 59.4807 9.13458C60.0632 9.27957 60.5003 9.56957 60.7915 9.93205C61.0828 10.2945 61.2284 10.7295 61.2284 11.3095C61.2284 11.672 61.1556 12.0345 60.9372 12.3245C60.7915 12.6145 60.5003 12.9044 60.209 13.1219C59.9176 13.3394 59.5535 13.4844 59.1166 13.6294C58.6797 13.7744 58.2428 13.8469 57.8058 13.8469C57.0776 13.8469 56.4951 13.7744 55.8397 13.5569C55.257 13.3394 54.8201 13.0494 54.4561 12.6869L55.6213 11.092C55.7669 11.3095 56.0582 11.4545 56.3494 11.5995C56.6407 11.7445 57.0048 11.817 57.3689 11.817C57.8058 11.817 58.0972 11.7445 58.3156 11.5995C58.5341 11.4545 58.6797 11.237 58.6797 10.947C58.6797 10.657 58.5341 10.4395 58.3156 10.222C58.0972 10.0771 57.6601 10.0046 57.0048 10.0046H56.2766V8.6996H56.932C57.4417 8.6996 57.8058 8.6271 58.0243 8.40962C58.2428 8.26462 58.3884 7.97464 58.3884 7.75715C58.3884 7.53966 58.3156 7.32216 58.0972 7.24966C57.9515 7.10467 57.6601 7.10467 57.4417 7.10467C57.1504 7.10467 56.8591 7.17716 56.4951 7.32216C56.131 7.46715 55.8397 7.61214 55.6213 7.82964L54.8201 6.0897Z" fill="black"/>
<path d="M54.8201 6.0897C55.257 5.72722 55.7669 5.43724 56.3494 5.29224C56.8591 5.14725 57.4417 5.00226 57.9515 5.00226C58.3156 5.00226 58.6797 5.07475 59.0438 5.14725C59.4079 5.21975 59.6991 5.36474 59.9904 5.58223C60.2818 5.72722 60.5003 6.01721 60.6459 6.30719C60.7915 6.59719 60.8643 6.88718 60.8643 7.32216C60.8643 7.75715 60.7187 8.11963 60.5003 8.48211C60.2818 8.84459 59.9176 9.06208 59.4807 9.13458C60.0632 9.27957 60.5003 9.56957 60.7915 9.93205C61.0828 10.2945 61.2284 10.7295 61.2284 11.3095C61.2284 11.672 61.1556 12.0345 60.9372 12.3245C60.7915 12.6145 60.5003 12.9044 60.209 13.1219C59.9176 13.3394 59.5535 13.4844 59.1166 13.6294C58.6797 13.7744 58.2428 13.8469 57.8058 13.8469C57.0776 13.8469 56.4951 13.7744 55.8397 13.5569C55.257 13.3394 54.8201 13.0494 54.4561 12.6869L55.6213 11.092C55.7669 11.3095 56.0582 11.4545 56.3494 11.5995C56.6407 11.7445 57.0048 11.817 57.3689 11.817C57.8058 11.817 58.0972 11.7445 58.3156 11.5995C58.5341 11.4545 58.6797 11.237 58.6797 10.947C58.6797 10.657 58.5341 10.4395 58.3156 10.222C58.0972 10.0771 57.6601 10.0046 57.0048 10.0046H56.2766V8.6996H56.932C57.4417 8.6996 57.8058 8.6271 58.0243 8.40962C58.2428 8.26462 58.3884 7.97464 58.3884 7.75715C58.3884 7.53966 58.3156 7.32216 58.0972 7.24966C57.9515 7.10467 57.6601 7.10467 57.4417 7.10467C57.1504 7.10467 56.8591 7.17716 56.4951 7.32216C56.131 7.46715 55.8397 7.61214 55.6213 7.82964L54.8201 6.0897Z" fill="black"/>
<path d="M65.3065 8.26456H68.001V5.36469H70.4769V13.4844H68.001V10.367H65.3065V13.4844H62.8306V5.36469H65.3065V8.26456Z" fill="black"/>
<path d="M65.3065 8.26456H68.001V5.36469H70.4769V13.4844H68.001V10.367H65.3065V13.4844H62.8306V5.36469H65.3065V8.26456Z" fill="black"/>
<path d="M80.4526 11.2371C80.2342 11.962 79.5787 12.6145 78.8505 13.0495C78.1951 13.4845 77.394 13.6295 76.4474 13.6295C75.7921 13.6295 75.1366 13.4845 74.6268 13.267C74.1171 13.0495 73.6074 12.7595 73.2432 12.3245C72.8791 11.962 72.5878 11.527 72.3694 11.0196C72.1509 10.5121 72.0781 10.0046 72.0781 9.42463C72.0781 8.84464 72.1509 8.26467 72.3694 7.7572C72.5878 7.24971 72.8791 6.74223 73.2432 6.37975C73.6074 6.01727 74.0443 5.65479 74.6268 5.43729C75.1366 5.2198 75.7921 5.0748 76.5202 5.0748C77.2484 5.0748 77.8309 5.2198 78.3408 5.43729C78.8505 5.65479 79.3602 5.94476 79.7243 6.37975C80.0884 6.74223 80.3798 7.24971 80.5982 7.6847C80.8167 8.19218 80.8895 8.69965 80.8895 9.27963C80.8895 9.42463 80.8895 9.56962 80.8895 9.71461C80.8895 9.85961 80.8895 10.0046 80.8167 10.0771H74.7725C74.8453 10.6571 74.9909 11.0196 75.355 11.3096C75.7192 11.5995 76.1561 11.7445 76.593 11.7445C76.9571 11.7445 77.3212 11.672 77.6125 11.4545C77.8309 11.382 77.9767 11.2371 78.0495 11.0921L80.4526 11.2371ZM78.1951 8.62715C78.1223 8.11968 77.9767 7.6847 77.6125 7.3947C77.3212 7.10472 76.8843 6.95972 76.4474 6.95972C75.9377 6.95972 75.5736 7.10472 75.2094 7.3947C74.9181 7.6847 74.6997 8.11968 74.6268 8.62715H78.1951Z" fill="black"/>
<path d="M80.4526 11.2371C80.2342 11.962 79.5787 12.6145 78.8505 13.0495C78.1951 13.4845 77.394 13.6295 76.4474 13.6295C75.7921 13.6295 75.1366 13.4845 74.6268 13.267C74.1171 13.0495 73.6074 12.7595 73.2432 12.3245C72.8791 11.962 72.5878 11.527 72.3694 11.0196C72.1509 10.5121 72.0781 10.0046 72.0781 9.42463C72.0781 8.84464 72.1509 8.26467 72.3694 7.7572C72.5878 7.24971 72.8791 6.74223 73.2432 6.37975C73.6074 6.01727 74.0443 5.65479 74.6268 5.43729C75.1366 5.2198 75.7921 5.0748 76.5202 5.0748C77.2484 5.0748 77.8309 5.2198 78.3408 5.43729C78.8505 5.65479 79.3602 5.94476 79.7243 6.37975C80.0884 6.74223 80.3798 7.24971 80.5982 7.6847C80.8167 8.19218 80.8895 8.69965 80.8895 9.27963C80.8895 9.42463 80.8895 9.56962 80.8895 9.71461C80.8895 9.85961 80.8895 10.0046 80.8167 10.0771H74.7725C74.8453 10.6571 74.9909 11.0196 75.355 11.3096C75.7192 11.5995 76.1561 11.7445 76.593 11.7445C76.9571 11.7445 77.3212 11.672 77.6125 11.4545C77.8309 11.382 77.9767 11.2371 78.0495 11.0921L80.4526 11.2371ZM78.1951 8.62715C78.1223 8.11968 77.9767 7.6847 77.6125 7.3947C77.3212 7.10472 76.8843 6.95972 76.4474 6.95972C75.9377 6.95972 75.5736 7.10472 75.2094 7.3947C74.9181 7.6847 74.6997 8.11968 74.6268 8.62715H78.1951Z" fill="black"/>
<path d="M31.6044 20.6616V14.1369L28.4002 11.962V5.0748L21.7006 0.724971L18.0597 3.40736L12.6709 0L6.33544 4.63981V6.08975L0 10.8021V17.3268L3.64106 19.7192V26.8239L10.3406 31.1737L14.1273 28.4189L19.5161 31.8987L25.8515 27.2589V25.084L31.6044 20.6616ZM6.84519 11.962V6.74223L11.9427 2.97238V8.26467L6.84519 11.962ZM12.7437 8.19217V2.89988L18.5694 6.74223V11.817L12.7437 8.19217ZM7.35493 23.0541L12.6709 19.1392L18.2781 22.7641L12.9622 26.6789L7.35493 23.0541ZM12.2339 13.3395V18.4867L7.06365 22.3291V17.1818L12.2339 13.3395ZM7.06365 12.687L12.3796 8.84464L18.2781 12.397L15.875 14.2094L12.6709 12.1795L9.68521 14.3544L7.06365 12.687ZM6.26261 20.5892L1.0195 17.1094L6.40826 13.1945L9.02981 14.7893L6.26261 16.8193V20.5892ZM18.4966 20.0817V22.0391L13.035 18.4867V13.267L15.5109 14.8619V18.1242L18.4966 20.0817ZM6.11698 7.24971V12.4695L0.801033 16.3118V11.1645L6.11698 7.24971ZM13.3991 27.9114L10.2678 30.2313L4.66055 26.6065L7.79186 24.2866L13.3991 27.9114ZM24.7592 27.0414L19.4432 30.9563L13.5447 27.114L18.8606 23.1991L24.7592 27.0414ZM28.4002 18.3417V12.9045L30.8761 14.572V19.7916L28.4002 18.3417ZM22.0649 7.24971V1.88492L27.5992 5.50978V11.0196L22.0649 7.24971ZM22.0649 13.412V8.11968L27.5992 11.817V16.9643L26.2884 16.0944L22.0649 13.412ZM27.3808 17.7618L22.1377 21.6042L16.5304 17.9792L21.7006 14.1369L27.3808 17.7618ZM19.2247 20.5892L22.1377 22.474L25.0505 20.3717V21.0967V26.3889L19.2247 22.619V20.5892ZM27.4536 18.6317L30.5848 20.5167L25.8515 24.0691V20.7342V19.7916L27.4536 18.6317ZM17.4043 3.91484L16.6032 4.49482L13.035 2.17492V1.08746L17.4043 3.91484Z" fill="black"/>
<path d="M31.6044 20.6616V14.1369L28.4002 11.962V5.0748L21.7006 0.724971L18.0597 3.40736L12.6709 0L6.33544 4.63981V6.08975L0 10.8021V17.3268L3.64106 19.7192V26.8239L10.3406 31.1737L14.1273 28.4189L19.5161 31.8987L25.8515 27.2589V25.084L31.6044 20.6616ZM6.84519 11.962V6.74223L11.9427 2.97238V8.26467L6.84519 11.962ZM12.7437 8.19217V2.89988L18.5694 6.74223V11.817L12.7437 8.19217ZM7.35493 23.0541L12.6709 19.1392L18.2781 22.7641L12.9622 26.6789L7.35493 23.0541ZM12.2339 13.3395V18.4867L7.06365 22.3291V17.1818L12.2339 13.3395ZM7.06365 12.687L12.3796 8.84464L18.2781 12.397L15.875 14.2094L12.6709 12.1795L9.68521 14.3544L7.06365 12.687ZM6.26261 20.5892L1.0195 17.1094L6.40826 13.1945L9.02981 14.7893L6.26261 16.8193V20.5892ZM18.4966 20.0817V22.0391L13.035 18.4867V13.267L15.5109 14.8619V18.1242L18.4966 20.0817ZM6.11698 7.24971V12.4695L0.801033 16.3118V11.1645L6.11698 7.24971ZM13.3991 27.9114L10.2678 30.2313L4.66055 26.6065L7.79186 24.2866L13.3991 27.9114ZM24.7592 27.0414L19.4432 30.9563L13.5447 27.114L18.8606 23.1991L24.7592 27.0414ZM28.4002 18.3417V12.9045L30.8761 14.572V19.7916L28.4002 18.3417ZM22.0649 7.24971V1.88492L27.5992 5.50978V11.0196L22.0649 7.24971ZM22.0649 13.412V8.11968L27.5992 11.817V16.9643L26.2884 16.0944L22.0649 13.412ZM27.3808 17.7618L22.1377 21.6042L16.5304 17.9792L21.7006 14.1369L27.3808 17.7618ZM19.2247 20.5892L22.1377 22.474L25.0505 20.3717V21.0967V26.3889L19.2247 22.619V20.5892ZM27.4536 18.6317L30.5848 20.5167L25.8515 24.0691V20.7342V19.7916L27.4536 18.6317ZM17.4043 3.91484L16.6032 4.49482L13.035 2.17492V1.08746L17.4043 3.91484Z" fill="black"/>
<path d="M88.3178 10.2946C88.2449 10.5846 88.0993 10.8021 87.9537 11.0196C87.808 11.2371 87.5896 11.3821 87.3711 11.4546C87.1526 11.5271 86.9341 11.5996 86.6428 11.5996C86.1331 11.5996 85.6962 11.3821 85.3321 11.0196C84.9679 10.6571 84.8223 10.0772 84.8223 9.49717C84.8223 9.20719 84.8951 8.91719 84.9679 8.6272C85.0409 8.33722 85.1865 8.11973 85.3321 7.97474C85.4778 7.75725 85.6962 7.61224 85.9147 7.53976C86.1331 7.46725 86.3516 7.39475 86.6428 7.39475C87.1526 7.39475 87.5896 7.61224 87.9537 7.97474C88.0993 8.19223 88.2449 8.40972 88.3178 8.6997H90.9393C90.8665 8.40972 90.7937 8.19223 90.7209 7.90224C90.5024 7.39475 90.2111 6.95977 89.8471 6.52478C89.4828 6.1623 89.0459 5.79982 88.4634 5.58233C87.9537 5.36484 87.2982 5.21985 86.57 5.21985C85.8419 5.21985 85.2593 5.36484 84.6767 5.58233C84.0941 5.79982 83.6572 6.1623 83.2931 6.52478C82.9291 6.88728 82.6376 7.39475 82.4192 7.90224C82.2007 8.40972 82.1279 8.98969 82.1279 9.49717C82.1279 10.0772 82.2007 10.5846 82.4192 11.0921C82.6376 11.5996 82.9291 12.0346 83.2931 12.4695C83.6572 12.832 84.1669 13.1945 84.6767 13.412C85.2593 13.6295 85.8419 13.7745 86.57 13.7745C87.2982 13.7745 87.8809 13.6295 88.4634 13.412C89.0459 13.1945 89.4828 12.9045 89.8471 12.4695C90.2111 12.1071 90.5024 11.5996 90.7209 11.0921C90.7937 10.8021 90.8665 10.5846 90.9393 10.2946H88.3178Z" fill="black"/>
<path d="M88.3178 10.2946C88.2449 10.5846 88.0993 10.8021 87.9537 11.0196C87.808 11.2371 87.5896 11.3821 87.3711 11.4546C87.1526 11.5271 86.9341 11.5996 86.6428 11.5996C86.1331 11.5996 85.6962 11.3821 85.3321 11.0196C84.9679 10.6571 84.8223 10.0772 84.8223 9.49717C84.8223 9.20719 84.8951 8.91719 84.9679 8.6272C85.0409 8.33722 85.1865 8.11973 85.3321 7.97474C85.4778 7.75725 85.6962 7.61224 85.9147 7.53976C86.1331 7.46725 86.3516 7.39475 86.6428 7.39475C87.1526 7.39475 87.5896 7.61224 87.9537 7.97474C88.0993 8.19223 88.2449 8.40972 88.3178 8.6997H90.9393C90.8665 8.40972 90.7937 8.19223 90.7209 7.90224C90.5024 7.39475 90.2111 6.95977 89.8471 6.52478C89.4828 6.1623 89.0459 5.79982 88.4634 5.58233C87.9537 5.36484 87.2982 5.21985 86.57 5.21985C85.8419 5.21985 85.2593 5.36484 84.6767 5.58233C84.0941 5.79982 83.6572 6.1623 83.2931 6.52478C82.9291 6.88728 82.6376 7.39475 82.4192 7.90224C82.2007 8.40972 82.1279 8.98969 82.1279 9.49717C82.1279 10.0772 82.2007 10.5846 82.4192 11.0921C82.6376 11.5996 82.9291 12.0346 83.2931 12.4695C83.6572 12.832 84.1669 13.1945 84.6767 13.412C85.2593 13.6295 85.8419 13.7745 86.57 13.7745C87.2982 13.7745 87.8809 13.6295 88.4634 13.412C89.0459 13.1945 89.4828 12.9045 89.8471 12.4695C90.2111 12.1071 90.5024 11.5996 90.7209 11.0921C90.7937 10.8021 90.8665 10.5846 90.9393 10.2946H88.3178Z" fill="black"/>
<path d="M74.8601 25.0842C74.8601 25.1566 74.8601 25.1566 74.8601 25.0842C74.7873 25.3741 74.6416 25.5916 74.496 25.809C74.3504 26.0266 74.1319 26.1715 73.9135 26.2441C73.695 26.3165 73.4766 26.3891 73.1852 26.3891C72.6755 26.3891 72.2386 26.1715 71.8745 25.809C71.5104 25.4467 71.3648 24.8666 71.3648 24.2866C71.3648 23.9966 71.4376 23.7067 71.5104 23.4167C71.5832 23.1266 71.7288 22.9092 71.8745 22.7643C72.0201 22.5467 72.2386 22.4018 72.457 22.3292C72.6755 22.2568 72.8939 22.1842 73.1852 22.1842C73.695 22.1842 74.1319 22.4018 74.496 22.7643C74.6416 22.9817 74.7873 23.1992 74.8601 23.4891H77.4816C77.4088 23.1992 77.336 22.9817 77.2632 22.6917C77.0447 22.1842 76.7535 21.7493 76.3894 21.3142C76.0253 20.9517 75.5884 20.5894 75.0057 20.3718C74.496 20.1543 73.8407 20.0093 73.1124 20.0093C72.3842 20.0093 71.8017 20.1543 71.2191 20.3718C70.6365 20.5894 70.1996 20.9517 69.8355 21.3142C69.4714 21.6767 69.1801 22.1842 68.9617 22.6917C68.7432 23.1992 68.6704 23.7792 68.6704 24.2866C68.6704 24.8666 68.7432 25.3741 68.9617 25.8816C69.1801 26.3891 69.4714 26.824 69.8355 27.2591C70.1996 27.6214 70.7093 27.984 71.2191 28.2015C71.8017 28.419 72.3842 28.564 73.1124 28.564C73.8407 28.564 74.4232 28.419 75.0057 28.2015C75.5884 27.984 76.0253 27.694 76.3894 27.2591C76.7535 26.8966 77.0447 26.3891 77.2632 25.8816C77.336 25.5916 77.4088 25.3741 77.4816 25.0842H74.8601Z" fill="black"/>
<path d="M74.8601 25.0842C74.8601 25.1566 74.8601 25.1566 74.8601 25.0842C74.7873 25.3741 74.6416 25.5916 74.496 25.809C74.3504 26.0266 74.1319 26.1715 73.9135 26.2441C73.695 26.3165 73.4766 26.3891 73.1852 26.3891C72.6755 26.3891 72.2386 26.1715 71.8745 25.809C71.5104 25.4467 71.3648 24.8666 71.3648 24.2866C71.3648 23.9966 71.4376 23.7067 71.5104 23.4167C71.5832 23.1266 71.7288 22.9092 71.8745 22.7643C72.0201 22.5467 72.2386 22.4018 72.457 22.3292C72.6755 22.2568 72.8939 22.1842 73.1852 22.1842C73.695 22.1842 74.1319 22.4018 74.496 22.7643C74.6416 22.9817 74.7873 23.1992 74.8601 23.4891H77.4816C77.4088 23.1992 77.336 22.9817 77.2632 22.6917C77.0447 22.1842 76.7535 21.7493 76.3894 21.3142C76.0253 20.9517 75.5884 20.5894 75.0057 20.3718C74.496 20.1543 73.8407 20.0093 73.1124 20.0093C72.3842 20.0093 71.8017 20.1543 71.2191 20.3718C70.6365 20.5894 70.1996 20.9517 69.8355 21.3142C69.4714 21.6767 69.1801 22.1842 68.9617 22.6917C68.7432 23.1992 68.6704 23.7792 68.6704 24.2866C68.6704 24.8666 68.7432 25.3741 68.9617 25.8816C69.1801 26.3891 69.4714 26.824 69.8355 27.2591C70.1996 27.6214 70.7093 27.984 71.2191 28.2015C71.8017 28.419 72.3842 28.564 73.1124 28.564C73.8407 28.564 74.4232 28.419 75.0057 28.2015C75.5884 27.984 76.0253 27.694 76.3894 27.2591C76.7535 26.8966 77.0447 26.3891 77.2632 25.8816C77.336 25.5916 77.4088 25.3741 77.4816 25.0842H74.8601Z" fill="black"/>
</svg>
