<svg width="369" height="342" viewBox="0 0 369 342" fill="none" xmlns="http://www.w3.org/2000/svg">
<path d="M44.5546 152.931C34.5755 237.393 94.9556 313.952 179.417 323.931C263.879 333.91 340.438 273.53 350.417 189.069C360.396 104.607 300.016 28.0476 215.555 18.0686C131.093 8.08955 54.5336 68.4696 44.5546 152.931Z" fill="#FF5555"/>
<g filter="url(#filter0_f_1092_92)">
<path d="M150.88 17.4976C127.07 24.6721 105.295 37.3799 87.3373 54.5822C69.3791 71.7844 55.7472 92.9925 47.556 116.473C39.3648 139.953 36.8469 165.038 40.2082 189.678C43.5696 214.318 52.7147 237.812 66.8958 258.24L196.343 168.378L150.88 17.4976Z" fill="url(#paint0_linear_1092_92)" fill-opacity="0.98"/>
</g>
<path d="M226.813 249.569L236.727 226.657L238.203 229.171H224.949L227.481 226.442V233.265H222.418V224.431H242.141V228.202L233 249.569H226.813Z" fill="white"/>
<path d="M255.064 250C253.048 250 251.244 249.497 249.65 248.492C248.056 247.462 246.802 245.978 245.888 244.039C244.974 242.099 244.517 239.753 244.517 237C244.517 234.247 244.974 231.901 245.888 229.961C246.802 228.022 248.056 226.55 249.65 225.544C251.244 224.515 253.048 224 255.064 224C257.103 224 258.908 224.515 260.478 225.544C262.072 226.55 263.326 228.022 264.24 229.961C265.154 231.901 265.611 234.247 265.611 237C265.611 239.753 265.154 242.099 264.24 244.039C263.326 245.978 262.072 247.462 260.478 248.492C258.908 249.497 257.103 250 255.064 250ZM255.064 245.08C256.025 245.08 256.857 244.805 257.56 244.254C258.287 243.703 258.849 242.83 259.248 241.633C259.67 240.436 259.881 238.891 259.881 237C259.881 235.109 259.67 233.564 259.248 232.367C258.849 231.17 258.287 230.296 257.56 229.746C256.857 229.195 256.025 228.92 255.064 228.92C254.127 228.92 253.295 229.195 252.568 229.746C251.865 230.296 251.302 231.17 250.88 232.367C250.482 233.564 250.283 235.109 250.283 237C250.283 238.891 250.482 240.436 250.88 241.633C251.302 242.83 251.865 243.703 252.568 244.254C253.295 244.805 254.127 245.08 255.064 245.08Z" fill="white"/>
<path d="M272.457 249.569L289.262 224.431H293.445L276.64 249.569H272.457ZM274.601 238.006C273.406 238.006 272.351 237.73 271.437 237.18C270.523 236.605 269.796 235.803 269.257 234.773C268.742 233.72 268.484 232.487 268.484 231.075C268.484 229.662 268.742 228.441 269.257 227.412C269.796 226.382 270.523 225.58 271.437 225.006C272.351 224.431 273.406 224.144 274.601 224.144C275.797 224.144 276.851 224.431 277.765 225.006C278.679 225.58 279.394 226.382 279.91 227.412C280.425 228.441 280.683 229.662 280.683 231.075C280.683 232.487 280.425 233.72 279.91 234.773C279.394 235.803 278.679 236.605 277.765 237.18C276.851 237.73 275.797 238.006 274.601 238.006ZM274.601 235.061C275.375 235.061 275.996 234.738 276.464 234.091C276.933 233.421 277.168 232.415 277.168 231.075C277.168 229.734 276.933 228.74 276.464 228.094C275.996 227.424 275.375 227.088 274.601 227.088C273.851 227.088 273.23 227.424 272.738 228.094C272.269 228.74 272.035 229.734 272.035 231.075C272.035 232.391 272.269 233.385 272.738 234.055C273.23 234.726 273.851 235.061 274.601 235.061ZM291.301 249.856C290.129 249.856 289.074 249.581 288.137 249.03C287.222 248.456 286.508 247.654 285.992 246.624C285.476 245.571 285.219 244.338 285.219 242.925C285.219 241.513 285.476 240.292 285.992 239.262C286.508 238.233 287.222 237.431 288.137 236.856C289.074 236.282 290.129 235.994 291.301 235.994C292.519 235.994 293.586 236.282 294.5 236.856C295.414 237.431 296.129 238.233 296.645 239.262C297.16 240.292 297.418 241.513 297.418 242.925C297.418 244.338 297.16 245.571 296.645 246.624C296.129 247.654 295.414 248.456 294.5 249.03C293.586 249.581 292.519 249.856 291.301 249.856ZM291.301 246.912C292.074 246.912 292.695 246.588 293.164 245.942C293.633 245.272 293.867 244.266 293.867 242.925C293.867 241.609 293.633 240.615 293.164 239.945C292.695 239.274 292.074 238.939 291.301 238.939C290.551 238.939 289.93 239.274 289.437 239.945C288.969 240.591 288.734 241.585 288.734 242.925C288.734 244.266 288.969 245.272 289.437 245.942C289.93 246.588 290.551 246.912 291.301 246.912Z" fill="white"/>
<path d="M90.3074 164C88.6109 164 86.9261 163.79 85.2528 163.37C83.5796 162.928 82.162 162.309 81 161.514L83.1961 157.403C84.1257 158.044 85.2064 158.552 86.438 158.928C87.6697 159.304 88.9131 159.492 90.168 159.492C91.5856 159.492 92.7011 159.227 93.5145 158.696C94.3279 158.166 94.7346 157.436 94.7346 156.508C94.7346 155.624 94.3743 154.928 93.6539 154.42C92.9335 153.912 91.7715 153.657 90.168 153.657H87.5884V150.11L94.386 142.785L95.0134 144.707H82.2201V140.398H99.3011V143.878L92.5384 151.204L89.68 149.646H91.3183C94.3162 149.646 96.5821 150.287 98.1159 151.569C99.6497 152.851 100.417 154.497 100.417 156.508C100.417 157.812 100.056 159.039 99.336 160.188C98.6156 161.315 97.5117 162.232 96.0243 162.939C94.537 163.646 92.6314 164 90.3074 164Z" fill="white"/>
<path d="M114.005 164C112.006 164 110.217 163.536 108.636 162.608C107.056 161.657 105.813 160.287 104.906 158.497C104 156.707 103.547 154.541 103.547 152C103.547 149.459 104 147.293 104.906 145.503C105.813 143.713 107.056 142.354 108.636 141.425C110.217 140.475 112.006 140 114.005 140C116.026 140 117.816 140.475 119.373 141.425C120.953 142.354 122.197 143.713 123.103 145.503C124.009 147.293 124.462 149.459 124.462 152C124.462 154.541 124.009 156.707 123.103 158.497C122.197 160.287 120.953 161.657 119.373 162.608C117.816 163.536 116.026 164 114.005 164ZM114.005 159.459C114.957 159.459 115.782 159.204 116.48 158.696C117.2 158.188 117.758 157.381 118.153 156.276C118.571 155.171 118.78 153.746 118.78 152C118.78 150.254 118.571 148.829 118.153 147.724C117.758 146.619 117.2 145.812 116.48 145.304C115.782 144.796 114.957 144.541 114.005 144.541C113.075 144.541 112.25 144.796 111.53 145.304C110.832 145.812 110.275 146.619 109.856 147.724C109.461 148.829 109.264 150.254 109.264 152C109.264 153.746 109.461 155.171 109.856 156.276C110.275 157.381 110.832 158.188 111.53 158.696C112.25 159.204 113.075 159.459 114.005 159.459Z" fill="white"/>
<path d="M131.25 163.602L147.913 140.398H152.061L135.398 163.602H131.25ZM133.376 152.928C132.191 152.928 131.145 152.674 130.239 152.166C129.333 151.635 128.612 150.895 128.078 149.945C127.566 148.972 127.311 147.834 127.311 146.53C127.311 145.227 127.566 144.099 128.078 143.149C128.612 142.199 129.333 141.459 130.239 140.928C131.145 140.398 132.191 140.133 133.376 140.133C134.562 140.133 135.607 140.398 136.514 140.928C137.42 141.459 138.129 142.199 138.64 143.149C139.151 144.099 139.407 145.227 139.407 146.53C139.407 147.834 139.151 148.972 138.64 149.945C138.129 150.895 137.42 151.635 136.514 152.166C135.607 152.674 134.562 152.928 133.376 152.928ZM133.376 150.21C134.143 150.21 134.759 149.912 135.224 149.315C135.689 148.696 135.921 147.768 135.921 146.53C135.921 145.293 135.689 144.376 135.224 143.779C134.759 143.16 134.143 142.851 133.376 142.851C132.633 142.851 132.017 143.16 131.529 143.779C131.064 144.376 130.832 145.293 130.832 146.53C130.832 147.746 131.064 148.663 131.529 149.282C132.017 149.901 132.633 150.21 133.376 150.21ZM149.934 163.867C148.773 163.867 147.727 163.613 146.797 163.105C145.891 162.575 145.182 161.834 144.671 160.884C144.159 159.912 143.904 158.773 143.904 157.47C143.904 156.166 144.159 155.039 144.671 154.088C145.182 153.138 145.891 152.398 146.797 151.867C147.727 151.337 148.773 151.072 149.934 151.072C151.143 151.072 152.2 151.337 153.107 151.867C154.013 152.398 154.722 153.138 155.233 154.088C155.744 155.039 156 156.166 156 157.47C156 158.773 155.744 159.912 155.233 160.884C154.722 161.834 154.013 162.575 153.107 163.105C152.2 163.613 151.143 163.867 149.934 163.867ZM149.934 161.149C150.701 161.149 151.317 160.851 151.782 160.254C152.247 159.635 152.479 158.707 152.479 157.47C152.479 156.254 152.247 155.337 151.782 154.718C151.317 154.099 150.701 153.79 149.934 153.79C149.191 153.79 148.575 154.099 148.087 154.718C147.622 155.315 147.39 156.232 147.39 157.47C147.39 158.707 147.622 159.635 148.087 160.254C148.575 160.851 149.191 161.149 149.934 161.149Z" fill="white"/>
<defs>
<filter id="filter0_f_1092_92" x="33.7622" y="12.4976" width="167.581" height="250.742" filterUnits="userSpaceOnUse" color-interpolation-filters="sRGB">
<feFlood flood-opacity="0" result="BackgroundImageFix"/>
<feBlend mode="normal" in="SourceGraphic" in2="BackgroundImageFix" result="shape"/>
<feGaussianBlur stdDeviation="2.5" result="effect1_foregroundBlur_1092_92"/>
</filter>
<linearGradient id="paint0_linear_1092_92" x1="339.876" y1="122.916" x2="38.1151" y2="213.84" gradientUnits="userSpaceOnUse">
<stop/>
<stop offset="1" stop-color="#444444"/>
</linearGradient>
</defs>
</svg>
